mtllib MENU.mtl
v 0.010570 0.006919 0.073503
v 0.010667 0.006702 0.072936
v 0.010570 0.008646 0.072842
v 0.010667 0.008428 0.072275
v 0.010644 0.008208 0.071701
v 0.010644 0.006482 0.072362
v 0.010502 0.007994 0.071142
v 0.010502 0.006268 0.071804
v 0.010246 0.007794 0.070620
v 0.010246 0.006068 0.071282
v 0.009885 0.007616 0.070155
v 0.009885 0.005889 0.070816
v 0.009435 0.007466 0.069764
v 0.009435 0.005740 0.070425
v 0.008911 0.007351 0.069463
v 0.008911 0.005624 0.070124
v 0.008335 0.007274 0.069263
v 0.008335 0.005548 0.069924
v 0.007727 0.007240 0.069172
v 0.007727 0.005513 0.069833
v 0.007113 0.007248 0.069193
v 0.007113 0.005521 0.069855
v 0.006515 0.007299 0.069326
v 0.006515 0.005572 0.069987
v 0.005956 0.007390 0.069565
v 0.005956 0.005664 0.070227
v 0.005457 0.007519 0.069902
v 0.005457 0.005792 0.070563
v 0.005039 0.007680 0.070323
v 0.005039 0.005954 0.070984
v 0.004716 0.007868 0.070812
v 0.004716 0.006141 0.071473
v 0.004502 0.008074 0.071350
v 0.004502 0.006347 0.072011
v 0.004405 0.008291 0.071917
v 0.004405 0.006565 0.072578
v 0.004427 0.008511 0.072491
v 0.004427 0.006784 0.073152
v 0.004570 0.008725 0.073050
v 0.004570 0.006998 0.073711
v 0.004826 0.008925 0.073572
v 0.004826 0.007198 0.074233
v 0.005186 0.009103 0.074037
v 0.005186 0.007377 0.074698
v 0.005637 0.009253 0.074428
v 0.005637 0.007526 0.075089
v 0.006161 0.009369 0.074729
v 0.006161 0.007642 0.075390
v 0.006737 0.009445 0.074929
v 0.006737 0.007718 0.075590
v 0.007344 0.009480 0.075020
v 0.007344 0.007753 0.075681
v 0.007959 0.009472 0.074998
v 0.007959 0.007745 0.075660
v 0.008557 0.009421 0.074866
v 0.008557 0.007694 0.075527
v 0.009116 0.009329 0.074626
v 0.009116 0.007603 0.075288
v 0.009615 0.009200 0.074290
v 0.009615 0.007474 0.074951
v 0.010033 0.009039 0.073869
v 0.010033 0.007312 0.074530
v 0.010355 0.008852 0.073380
v 0.010355 0.007125 0.074041
v 0.010576 0.008649 0.072184
v 0.010481 0.008860 0.072735
v 0.010554 0.008435 0.071627
v 0.010416 0.008227 0.071085
v 0.010167 0.008033 0.070578
v 0.009817 0.007860 0.070126
v 0.009380 0.007715 0.069746
v 0.008871 0.007603 0.069454
v 0.008311 0.007528 0.069260
v 0.007722 0.007494 0.069171
v 0.007125 0.007502 0.069192
v 0.006544 0.007552 0.069321
v 0.006001 0.007641 0.069554
v 0.005518 0.007766 0.069881
v 0.005112 0.007923 0.070290
v 0.004799 0.008105 0.070764
v 0.004591 0.008305 0.071287
v 0.004497 0.008516 0.071837
v 0.004519 0.008729 0.072394
v 0.004658 0.008937 0.072936
v 0.004906 0.009131 0.073443
v 0.005256 0.009304 0.073894
v 0.005694 0.009449 0.074273
v 0.006202 0.009561 0.074565
v 0.006761 0.009636 0.074759
v 0.007350 0.009669 0.074848
v 0.007946 0.009662 0.074827
v 0.008527 0.009612 0.074698
v 0.009069 0.009523 0.074466
v 0.009553 0.009398 0.074140
v 0.009959 0.009242 0.073732
v 0.010273 0.009060 0.073257
v 0.009799 0.009379 0.073549
v 0.009419 0.009525 0.073930
v 0.008968 0.009642 0.074235
v 0.008461 0.009725 0.074451
v 0.007919 0.009771 0.074571
v 0.007362 0.009778 0.074590
v 0.006812 0.009747 0.074508
v 0.006290 0.009677 0.074327
v 0.005816 0.009573 0.074054
v 0.005407 0.009437 0.073700
v 0.005081 0.009276 0.073279
v 0.004848 0.009095 0.072806
v 0.004719 0.008901 0.072300
v 0.004698 0.008701 0.071780
v 0.004786 0.008504 0.071266
v 0.004980 0.008317 0.070778
v 0.005272 0.008147 0.070334
v 0.005651 0.008001 0.069952
v 0.006102 0.007884 0.069647
v 0.006609 0.007801 0.069430
v 0.007152 0.007754 0.069309
v 0.007709 0.007747 0.069289
v 0.008260 0.007778 0.069372
v 0.008783 0.007848 0.069553
v 0.009258 0.007952 0.069826
v 0.009667 0.008088 0.070181
v 0.009994 0.008250 0.070603
v 0.010226 0.008432 0.071077
v 0.010355 0.008626 0.071584
v 0.010375 0.008825 0.072104
v 0.010286 0.009022 0.072618
v 0.010092 0.009209 0.073106
v 0.007536 0.008911 0.071883
vn 0.967046 0.091088 0.237751
vn 0.998135 0.021841 0.057007
vn 0.929481 0.345286 0.129780
vn 0.959386 0.278657 -0.043914
vn 0.952419 0.211229 -0.219727
vn 0.990866 -0.048246 -0.125928
vn 0.908850 0.145587 -0.390891
vn 0.945519 -0.116476 -0.304017
vn 0.830348 0.084254 -0.550839
vn 0.863836 -0.180232 -0.470429
vn 0.719929 0.029589 -0.693417
vn 0.748956 -0.237062 -0.618762
vn 0.581839 -0.016303 -0.813141
vn 0.605294 -0.284781 -0.743316
vn 0.421384 -0.051662 -0.905410
vn 0.438371 -0.321557 -0.839305
vn 0.244732 -0.075126 -0.966676
vn 0.254601 -0.345975 -0.903039
vn 0.058680 -0.085794 -0.994583
vn 0.061049 -0.357098 -0.932070
vn -0.129628 -0.083256 -0.988061
vn -0.134851 -0.354497 -0.925282
vn -0.312950 -0.067609 -0.947360
vn -0.325571 -0.338273 -0.882936
vn -0.484231 -0.039458 -0.874050
vn -0.503772 -0.309051 -0.806661
vn -0.636899 0.000115 -0.770948
vn -0.662615 -0.267952 -0.699388
vn -0.765089 0.049594 -0.642012
vn -0.796003 -0.216553 -0.565230
vn -0.863867 0.107070 -0.492210
vn -0.898794 -0.156834 -0.409356
vn -0.929443 0.170334 -0.327296
vn -0.967046 -0.091088 -0.237751
vn -0.959300 0.236956 -0.153607
vn -0.998135 -0.021841 -0.057009
vn -0.952293 0.304379 0.022184
vn -0.990866 0.048246 0.125928
vn -0.908693 0.370008 0.193317
vn -0.945518 0.116478 0.304022
vn -0.830180 0.431320 0.353219
vn -0.863836 0.180232 0.470429
vn -0.719768 0.485966 0.495753
vn -0.748956 0.237062 0.618762
vn -0.581700 0.531845 0.615439
vn -0.605293 0.284782 0.743317
vn -0.421284 0.567193 0.707680
vn -0.438371 0.321557 0.839305
vn -0.244681 0.590653 0.768935
vn -0.254602 0.345975 0.903039
vn -0.058674 0.601324 0.796849
vn -0.061049 0.357098 0.932070
vn 0.129593 0.598795 0.790349
vn 0.134851 0.354497 0.925282
vn 0.312882 0.583164 0.749683
vn 0.325567 0.338274 0.882937
vn 0.484156 0.555029 0.676415
vn 0.503773 0.309050 0.806661
vn 0.636833 0.515471 0.573353
vn 0.662621 0.267950 0.699383
vn 0.765044 0.466010 0.444459
vn 0.796003 0.216553 0.565230
vn 0.863862 0.408543 0.294680
vn 0.898797 0.156832 0.409351
vn 0.832501 0.533830 -0.148218
vn 0.806020 0.591884 0.002339
vn 0.826970 0.475035 -0.300768
vn 0.789602 0.417785 -0.449426
vn 0.721831 0.364247 -0.588458
vn 0.624756 0.317413 -0.713392
vn 0.504350 0.275908 -0.818233
vn 0.364812 0.245232 -0.898206
vn 0.211222 0.224974 -0.951195
vn 0.049499 0.215907 -0.975158
vn -0.114076 0.218385 -0.969172
vn -0.273200 0.232323 -0.933482
vn -0.421737 0.257142 -0.869492
vn -0.553969 0.291898 -0.779688
vn -0.664820 0.335239 -0.667555
vn -0.750049 0.385484 -0.537429
vn -0.806403 0.440703 -0.394330
vn -0.831753 0.498758 -0.243778
vn -0.825153 0.557444 -0.091532
vn -0.786912 0.614468 0.056558
vn -0.718489 0.667694 0.194832
vn -0.622538 0.715067 0.318003
vn -0.502743 0.754780 0.421376
vn -0.363690 0.785315 0.501010
vn -0.210681 0.805524 0.553846
vn -0.051045 0.813788 0.578916
vn 0.110740 0.812390 0.572504
vn 0.269618 0.798830 0.537753
vn 0.418213 0.774406 0.474756
vn 0.550853 0.740012 0.385933
vn 0.662399 0.696995 0.274638
vn 0.748575 0.646975 0.145117
vn 0.132350 0.956818 -0.258810
vn 0.110177 0.965364 -0.236501
vn 0.083766 0.972199 -0.218661
vn 0.054136 0.977059 -0.205975
vn 0.022425 0.979757 -0.198932
vn -0.010150 0.980190 -0.197801
vn -0.042334 0.978341 -0.202627
vn -0.072892 0.974280 -0.213225
vn -0.100649 0.968165 -0.229186
vn -0.124536 0.960230 -0.249898
vn -0.143638 0.950780 -0.274565
vn -0.157216 0.940179 -0.302236
vn -0.164754 0.928834 -0.331849
vn -0.165959 0.917181 -0.362267
vn -0.160785 0.905668 -0.392319
vn -0.149434 0.894738 -0.420849
vn -0.132340 0.884810 -0.446763
vn -0.110162 0.876267 -0.469065
vn -0.083751 0.869435 -0.486898
vn -0.054123 0.864578 -0.499575
vn -0.022417 0.861882 -0.506613
vn 0.010151 0.861451 -0.507740
vn 0.042327 0.863300 -0.502912
vn 0.072877 0.867360 -0.492317
vn 0.100627 0.873473 -0.476360
vn 0.124511 0.881406 -0.455655
vn 0.143610 0.890853 -0.430996
vn 0.157192 0.901451 -0.403332
vn 0.164735 0.912794 -0.373724
vn 0.165946 0.924446 -0.343311
vn 0.160782 0.935958 -0.313262
vn 0.149438 0.946889 -0.284728
vn 0.000055 0.933771 -0.357871
vt 0.717250 0.317843
vt 0.722746 0.328125
vt 0.709401 0.323088
vt 0.714024 0.331738
vt 0.716872 0.341125
vt 0.726131 0.339283
vt 0.717833 0.350886
vt 0.727274 0.350886
vt 0.716872 0.360647
vt 0.726131 0.362489
vt 0.714025 0.370034
vt 0.722746 0.373646
vt 0.709401 0.378684
vt 0.717250 0.383929
vt 0.703178 0.386266
vt 0.709854 0.392942
vt 0.695596 0.392489
vt 0.700841 0.400338
vt 0.686946 0.397112
vt 0.690558 0.405835
vt 0.677559 0.399960
vt 0.679401 0.409219
vt 0.667798 0.400921
vt 0.667798 0.410362
vt 0.658037 0.399960
vt 0.656195 0.409219
vt 0.648650 0.397113
vt 0.645037 0.405835
vt 0.640000 0.392489
vt 0.634755 0.400338
vt 0.632418 0.386266
vt 0.625742 0.392942
vt 0.626195 0.378684
vt 0.618346 0.383929
vt 0.621571 0.370034
vt 0.612849 0.373647
vt 0.618724 0.360647
vt 0.609465 0.362489
vt 0.617763 0.350886
vt 0.608322 0.350886
vt 0.618724 0.341125
vt 0.609465 0.339283
vt 0.621571 0.331738
vt 0.612849 0.328126
vt 0.626195 0.323088
vt 0.618346 0.317843
vt 0.632418 0.315506
vt 0.625742 0.308830
vt 0.640000 0.309283
vt 0.634755 0.301434
vt 0.648650 0.304659
vt 0.645037 0.295937
vt 0.658036 0.301812
vt 0.656195 0.292553
vt 0.667798 0.300851
vt 0.667798 0.291410
vt 0.677559 0.301812
vt 0.679401 0.292553
vt 0.686946 0.304659
vt 0.690558 0.295937
vt 0.695596 0.309283
vt 0.700841 0.301434
vt 0.703178 0.315506
vt 0.709854 0.308830
vt 0.705304 0.335348
vt 0.701549 0.328331
vt 0.707618 0.342963
vt 0.708402 0.350884
vt 0.707624 0.358806
vt 0.705315 0.366425
vt 0.701563 0.373447
vt 0.696513 0.379601
vt 0.690359 0.384651
vt 0.683337 0.388403
vt 0.675718 0.390712
vt 0.667796 0.391490
vt 0.659875 0.390706
vt 0.652260 0.388393
vt 0.645243 0.384637
vt 0.639094 0.379586
vt 0.634050 0.373433
vt 0.630303 0.366414
vt 0.627997 0.358801
vt 0.627221 0.350884
vt 0.628003 0.342969
vt 0.630313 0.335358
vt 0.634064 0.328345
vt 0.639109 0.322197
vt 0.645257 0.317152
vt 0.652270 0.313401
vt 0.659881 0.311091
vt 0.667796 0.310309
vt 0.675713 0.311085
vt 0.683326 0.313391
vt 0.690345 0.317138
vt 0.696498 0.322182
vt 0.688222 0.320314
vt 0.681863 0.316921
vt 0.674966 0.314834
vt 0.667795 0.314132
vt 0.660626 0.314842
vt 0.653734 0.316936
vt 0.647382 0.320333
vt 0.641814 0.324903
vt 0.637245 0.330470
vt 0.633847 0.336822
vt 0.631754 0.343715
vt 0.631044 0.350884
vt 0.631746 0.358054
vt 0.633833 0.364951
vt 0.637226 0.371310
vt 0.641794 0.376886
vt 0.647363 0.381463
vt 0.653719 0.384867
vt 0.660618 0.386966
vt 0.667796 0.387677
vt 0.674974 0.386974
vt 0.681878 0.384882
vt 0.688241 0.381483
vt 0.693818 0.376907
vt 0.698395 0.371329
vt 0.701794 0.364966
vt 0.703885 0.358062
vt 0.704589 0.350884
vt 0.703878 0.343706
vt 0.701779 0.336807
vt 0.698375 0.330451
vt 0.693798 0.324882
vt 0.667798 0.350886
usemtl material_0
s 1
f 1/1/1 2/2/2 3/3/3
f 3/3/3 2/2/2 4/4/4
f 4/4/4 2/2/2 5/5/5
f 5/5/5 2/2/2 6/6/6
f 5/5/5 6/6/6 7/7/7
f 7/7/7 6/6/6 8/8/8
f 7/7/7 8/8/8 9/9/9
f 9/9/9 8/8/8 10/10/10
f 9/9/9 10/10/10 11/11/11
f 11/11/11 10/10/10 12/12/12
f 11/11/11 12/12/12 13/13/13
f 13/13/13 12/12/12 14/14/14
f 13/13/13 14/14/14 15/15/15
f 15/15/15 14/14/14 16/16/16
f 15/15/15 16/16/16 17/17/17
f 17/17/17 16/16/16 18/18/18
f 17/17/17 18/18/18 19/19/19
f 19/19/19 18/18/18 20/20/20
f 19/19/19 20/20/20 21/21/21
f 21/21/21 20/20/20 22/22/22
f 21/21/21 22/22/22 23/23/23
f 23/23/23 22/22/22 24/24/24
f 23/23/23 24/24/24 25/25/25
f 25/25/25 24/24/24 26/26/26
f 25/25/25 26/26/26 27/27/27
f 27/27/27 26/26/26 28/28/28
f 27/27/27 28/28/28 29/29/29
f 29/29/29 28/28/28 30/30/30
f 29/29/29 30/30/30 31/31/31
f 31/31/31 30/30/30 32/32/32
f 31/31/31 32/32/32 33/33/33
f 33/33/33 32/32/32 34/34/34
f 33/33/33 34/34/34 35/35/35
f 35/35/35 34/34/34 36/36/36
f 35/35/35 36/36/36 37/37/37
f 37/37/37 36/36/36 38/38/38
f 37/37/37 38/38/38 39/39/39
f 39/39/39 38/38/38 40/40/40
f 39/39/39 40/40/40 41/41/41
f 41/41/41 40/40/40 42/42/42
f 41/41/41 42/42/42 43/43/43
f 43/43/43 42/42/42 44/44/44
f 43/43/43 44/44/44 45/45/45
f 45/45/45 44/44/44 46/46/46
f 45/45/45 46/46/46 47/47/47
f 47/47/47 46/46/46 48/48/48
f 47/47/47 48/48/48 49/49/49
f 49/49/49 48/48/48 50/50/50
f 49/49/49 50/50/50 51/51/51
f 51/51/51 50/50/50 52/52/52
f 51/51/51 52/52/52 53/53/53
f 53/53/53 52/52/52 54/54/54
f 53/53/53 54/54/54 55/55/55
f 55/55/55 54/54/54 56/56/56
f 55/55/55 56/56/56 57/57/57
f 57/57/57 56/56/56 58/58/58
f 57/57/57 58/58/58 59/59/59
f 59/59/59 58/58/58 60/60/60
f 59/59/59 60/60/60 61/61/61
f 61/61/61 60/60/60 62/62/62
f 61/61/61 62/62/62 63/63/63
f 63/63/63 62/62/62 64/64/64
f 63/63/63 64/64/64 3/3/3
f 3/3/3 64/64/64 1/1/1
f 4/4/4 65/65/65 3/3/3
f 3/3/3 65/65/65 66/66/66
f 5/5/5 67/67/67 4/4/4
f 4/4/4 67/67/67 65/65/65
f 7/7/7 68/68/68 5/5/5
f 5/5/5 68/68/68 67/67/67
f 9/9/9 69/69/69 7/7/7
f 7/7/7 69/69/69 68/68/68
f 11/11/11 70/70/70 9/9/9
f 9/9/9 70/70/70 69/69/69
f 11/11/11 13/13/13 70/70/70
f 70/70/70 13/13/13 71/71/71
f 13/13/13 15/15/15 71/71/71
f 71/71/71 15/15/15 72/72/72
f 15/15/15 17/17/17 72/72/72
f 72/72/72 17/17/17 73/73/73
f 17/17/17 19/19/19 73/73/73
f 73/73/73 19/19/19 74/74/74
f 19/19/19 21/21/21 74/74/74
f 74/74/74 21/21/21 75/75/75
f 21/21/21 23/23/23 75/75/75
f 75/75/75 23/23/23 76/76/76
f 23/23/23 25/25/25 76/76/76
f 76/76/76 25/25/25 77/77/77
f 25/25/25 27/27/27 77/77/77
f 77/77/77 27/27/27 78/78/78
f 27/27/27 29/29/29 78/78/78
f 78/78/78 29/29/29 79/79/79
f 29/29/29 31/31/31 79/79/79
f 79/79/79 31/31/31 80/80/80
f 31/31/31 33/33/33 80/80/80
f 80/80/80 33/33/33 81/81/81
f 33/33/33 35/35/35 81/81/81
f 81/81/81 35/35/35 82/82/82
f 35/35/35 37/37/37 82/82/82
f 82/82/82 37/37/37 83/83/83
f 37/37/37 39/39/39 83/83/83
f 83/83/83 39/39/39 84/84/84
f 39/39/39 41/41/41 84/84/84
f 84/84/84 41/41/41 85/85/85
f 41/41/41 43/43/43 85/85/85
f 85/85/85 43/43/43 86/86/86
f 43/43/43 45/45/45 86/86/86
f 86/86/86 45/45/45 87/87/87
f 45/45/45 47/47/47 87/87/87
f 87/87/87 47/47/47 88/88/88
f 47/47/47 49/49/49 88/88/88
f 88/88/88 49/49/49 89/89/89
f 49/49/49 51/51/51 89/89/89
f 89/89/89 51/51/51 90/90/90
f 53/53/53 91/91/91 51/51/51
f 51/51/51 91/91/91 90/90/90
f 55/55/55 92/92/92 53/53/53
f 53/53/53 92/92/92 91/91/91
f 57/57/57 93/93/93 55/55/55
f 55/55/55 93/93/93 92/92/92
f 59/59/59 94/94/94 57/57/57
f 57/57/57 94/94/94 93/93/93
f 61/61/61 95/95/95 59/59/59
f 59/59/59 95/95/95 94/94/94
f 95/95/95 61/61/61 96/96/96
f 96/96/96 61/61/61 63/63/63
f 3/3/3 66/66/66 63/63/63
f 63/63/63 66/66/66 96/96/96
f 95/95/95 97/97/97 94/94/94
f 94/94/94 97/97/97 98/98/98
f 94/94/94 98/98/98 93/93/93
f 93/93/93 98/98/98 99/99/99
f 93/93/93 99/99/99 92/92/92
f 92/92/92 99/99/99 100/100/100
f 92/92/92 100/100/100 91/91/91
f 91/91/91 100/100/100 101/101/101
f 91/91/91 101/101/101 90/90/90
f 90/90/90 101/101/101 102/102/102
f 89/89/89 90/90/90 103/103/103
f 103/103/103 90/90/90 102/102/102
f 88/88/88 89/89/89 104/104/104
f 104/104/104 89/89/89 103/103/103
f 87/87/87 88/88/88 105/105/105
f 105/105/105 88/88/88 104/104/104
f 86/86/86 87/87/87 106/106/106
f 106/106/106 87/87/87 105/105/105
f 85/85/85 86/86/86 107/107/107
f 107/107/107 86/86/86 106/106/106
f 84/84/84 85/85/85 108/108/108
f 108/108/108 85/85/85 107/107/107
f 83/83/83 84/84/84 109/109/109
f 109/109/109 84/84/84 108/108/108
f 82/82/82 83/83/83 110/110/110
f 110/110/110 83/83/83 109/109/109
f 81/81/81 82/82/82 111/111/111
f 111/111/111 82/82/82 110/110/110
f 80/80/80 81/81/81 112/112/112
f 112/112/112 81/81/81 111/111/111
f 79/79/79 80/80/80 113/113/113
f 113/113/113 80/80/80 112/112/112
f 78/78/78 79/79/79 114/114/114
f 114/114/114 79/79/79 113/113/113
f 77/77/77 78/78/78 115/115/115
f 115/115/115 78/78/78 114/114/114
f 76/76/76 77/77/77 116/116/116
f 116/116/116 77/77/77 115/115/115
f 75/75/75 76/76/76 117/117/117
f 117/117/117 76/76/76 116/116/116
f 74/74/74 75/75/75 118/118/118
f 118/118/118 75/75/75 117/117/117
f 73/73/73 74/74/74 119/119/119
f 119/119/119 74/74/74 118/118/118
f 72/72/72 73/73/73 120/120/120
f 120/120/120 73/73/73 119/119/119
f 71/71/71 72/72/72 121/121/121
f 121/121/121 72/72/72 120/120/120
f 70/70/70 71/71/71 122/122/122
f 122/122/122 71/71/71 121/121/121
f 70/70/70 122/122/122 69/69/69
f 69/69/69 122/122/122 123/123/123
f 69/69/69 123/123/123 68/68/68
f 68/68/68 123/123/123 124/124/124
f 68/68/68 124/124/124 67/67/67
f 67/67/67 124/124/124 125/125/125
f 67/67/67 125/125/125 65/65/65
f 65/65/65 125/125/125 126/126/126
f 65/65/65 126/126/126 66/66/66
f 66/66/66 126/126/126 127/127/127
f 66/66/66 127/127/127 96/96/96
f 96/96/96 127/127/127 128/128/128
f 96/96/96 128/128/128 95/95/95
f 95/95/95 128/128/128 97/97/97
f 127/127/127 126/126/126 129/129/129
f 129/129/129 126/126/126 125/125/125
f 129/129/129 125/125/125 124/124/124
f 129/129/129 124/124/124 123/123/123
f 129/129/129 123/123/123 122/122/122
f 129/129/129 122/122/122 121/121/121
f 129/129/129 121/121/121 120/120/120
f 129/129/129 120/120/120 119/119/119
f 129/129/129 119/119/119 118/118/118
f 129/129/129 118/118/118 117/117/117
f 129/129/129 117/117/117 116/116/116
f 129/129/129 116/116/116 115/115/115
f 129/129/129 115/115/115 114/114/114
f 129/129/129 114/114/114 113/113/113
f 129/129/129 113/113/113 112/112/112
f 129/129/129 112/112/112 111/111/111
f 129/129/129 111/111/111 110/110/110
f 129/129/129 110/110/110 109/109/109
f 129/129/129 109/109/109 108/108/108
f 129/129/129 108/108/108 107/107/107
f 129/129/129 107/107/107 106/106/106
f 129/129/129 106/106/106 105/105/105
f 129/129/129 105/105/105 104/104/104
f 129/129/129 104/104/104 103/103/103
f 129/129/129 103/103/103 102/102/102
f 129/129/129 102/102/102 101/101/101
f 129/129/129 101/101/101 100/100/100
f 129/129/129 100/100/100 99/99/99
f 129/129/129 99/99/99 98/98/98
f 129/129/129 98/98/98 97/97/97
f 129/129/129 97/97/97 128/128/128
f 129/129/129 128/128/128 127/127/127
