mtllib TOUCHPAD_PRESS.mtl
v 0.013512 -0.001594 0.052097
v 0.012738 -0.002506 0.049715
v 0.013512 0.000810 0.051176
v 0.012738 -0.000103 0.048794
v 0.011481 -0.003348 0.047519
v 0.011481 -0.000944 0.046598
v 0.009790 -0.004085 0.045595
v 0.009790 -0.001681 0.044674
v 0.007730 -0.004690 0.044016
v 0.007730 -0.002286 0.043095
v 0.005379 -0.005139 0.042842
v 0.005379 -0.002736 0.041921
v 0.002828 -0.005416 0.042120
v 0.002828 -0.003012 0.041199
v 0.000175 -0.005510 0.041876
v 0.000175 -0.003106 0.040955
v -0.002478 -0.005416 0.042120
v -0.002478 -0.003012 0.041199
v -0.005029 -0.005139 0.042842
v -0.005029 -0.002736 0.041921
v -0.007380 -0.004690 0.044016
v -0.007380 -0.002286 0.043095
v -0.009441 -0.001681 0.044674
v -0.009441 -0.004085 0.045595
v -0.011132 -0.003348 0.047519
v -0.011132 -0.000944 0.046598
v -0.012389 -0.002506 0.049715
v -0.012389 -0.000103 0.048794
v -0.013163 -0.001594 0.052097
v -0.013163 0.000810 0.051176
v -0.013424 -0.000645 0.054574
v -0.013424 0.001759 0.053653
v -0.013163 0.000304 0.057052
v -0.013163 0.002708 0.056131
v -0.012389 0.001217 0.059434
v -0.012389 0.003621 0.058513
v -0.011132 0.002058 0.061629
v -0.011132 0.004462 0.060708
v -0.009441 0.002796 0.063553
v -0.009441 0.005199 0.062632
v -0.007380 0.003401 0.065133
v -0.007380 0.005804 0.064212
v -0.005029 0.003850 0.066306
v -0.005029 0.006254 0.065385
v -0.002478 0.004127 0.067029
v -0.002478 0.006531 0.066108
v 0.000175 0.004220 0.067273
v 0.000175 0.006624 0.066352
v 0.002828 0.004127 0.067029
v 0.002828 0.006531 0.066108
v 0.005379 0.003850 0.066306
v 0.005379 0.006254 0.065385
v 0.007730 0.003401 0.065133
v 0.007730 0.005804 0.064212
v 0.009790 0.002796 0.063553
v 0.009790 0.005199 0.062632
v 0.011481 0.002058 0.061629
v 0.011481 0.004462 0.060708
v 0.012738 0.001217 0.059434
v 0.012738 0.003621 0.058513
v 0.013512 0.000304 0.057052
v 0.013512 0.002708 0.056131
v 0.013773 -0.000645 0.054574
v 0.013773 0.001759 0.053653
v 0.013263 0.001197 0.051081
v 0.012504 0.000301 0.048743
v 0.011270 -0.000524 0.046589
v 0.009611 -0.001247 0.044700
v 0.007589 -0.001841 0.043150
v 0.005281 -0.002282 0.041999
v 0.002778 -0.002554 0.041290
v 0.000175 -0.002646 0.041050
v -0.002429 -0.002554 0.041290
v -0.004932 -0.002282 0.041999
v -0.007239 -0.001841 0.043150
v -0.009262 -0.001247 0.044700
v -0.010921 -0.000524 0.046589
v -0.012154 0.000301 0.048743
v -0.012914 0.001197 0.051081
v -0.013170 0.002128 0.053512
v -0.012914 0.003060 0.055943
v -0.012154 0.003955 0.058281
v -0.010921 0.004781 0.060435
v -0.009262 0.005504 0.062323
v -0.007239 0.006098 0.063873
v -0.004932 0.006539 0.065025
v -0.002429 0.006811 0.065734
v 0.000175 0.006903 0.065973
v 0.002778 0.006811 0.065734
v 0.005281 0.006539 0.065025
v 0.007589 0.006098 0.063873
v 0.009611 0.005504 0.062323
v 0.011270 0.004781 0.060435
v 0.012504 0.003955 0.058281
v 0.013263 0.003060 0.055943
v 0.013519 0.002128 0.053512
v 0.006690 0.001339 0.052427
v 0.006312 0.000893 0.051263
v 0.000175 0.001665 0.053689
v 0.005698 0.000482 0.050191
v 0.004872 0.000122 0.049251
v 0.003865 -0.000174 0.048479
v 0.002717 -0.000393 0.047906
v 0.001471 -0.000528 0.047553
v 0.000175 -0.000574 0.047434
v -0.001121 -0.000528 0.047553
v -0.002367 -0.000393 0.047906
v -0.003516 -0.000174 0.048479
v -0.004522 0.000122 0.049251
v -0.005348 0.000482 0.050191
v -0.005962 0.000893 0.051263
v -0.006340 0.001339 0.052427
v -0.006468 0.001802 0.053637
v -0.006340 0.002266 0.054847
v -0.005962 0.002712 0.056010
v -0.005348 0.003123 0.057083
v -0.004522 0.003483 0.058023
v -0.003516 0.003778 0.058794
v -0.002367 0.003998 0.059367
v -0.001121 0.004133 0.059720
v 0.000175 0.004179 0.059840
v 0.001471 0.004133 0.059720
v 0.002717 0.003998 0.059367
v 0.003865 0.003778 0.058794
v 0.004872 0.003483 0.058023
v 0.005698 0.003123 0.057083
v 0.006312 0.002712 0.056010
v 0.006690 0.002266 0.054847
v 0.006817 0.001802 0.053637
vn 0.980784 -0.069798 -0.182182
vn 0.923880 -0.136910 -0.357352
vn 0.977480 0.007022 -0.210909
vn 0.920768 -0.059863 -0.385490
vn 0.831471 -0.198763 -0.518797
vn 0.828669 -0.121506 -0.546391
vn 0.707107 -0.252978 -0.660305
vn 0.704724 -0.175538 -0.687422
vn 0.555571 -0.297470 -0.776435
vn 0.553699 -0.219881 -0.803162
vn 0.382682 -0.330532 -0.862730
vn 0.381393 -0.252832 -0.889165
vn 0.195090 -0.350890 -0.915869
vn 0.194433 -0.273123 -0.942125
vn 0.000002 -0.357765 -0.933812
vn 0.000001 -0.279973 -0.960008
vn -0.195089 -0.350891 -0.915869
vn -0.194432 -0.273121 -0.942126
vn -0.382683 -0.330532 -0.862730
vn -0.381394 -0.252831 -0.889166
vn -0.555571 -0.297470 -0.776435
vn -0.553700 -0.219881 -0.803162
vn -0.704725 -0.175539 -0.687422
vn -0.707107 -0.252978 -0.660304
vn -0.831470 -0.198764 -0.518798
vn -0.828669 -0.121509 -0.546392
vn -0.923879 -0.136911 -0.357355
vn -0.920767 -0.059865 -0.385492
vn -0.980785 -0.069797 -0.182178
vn -0.977481 0.007023 -0.210906
vn -1.000000 0.000000 -0.000000
vn -0.996631 0.076585 -0.029341
vn -0.980785 0.069796 0.182176
vn -0.977481 0.146146 0.152221
vn -0.923880 0.136910 0.357353
vn -0.920767 0.213036 0.326808
vn -0.831470 0.198763 0.518798
vn -0.828669 0.274681 0.487708
vn -0.707107 0.252978 0.660304
vn -0.704725 0.328712 0.628738
vn -0.555570 0.297471 0.776436
vn -0.553699 0.373055 0.744478
vn -0.382684 0.330532 0.862729
vn -0.381395 0.406005 0.830481
vn -0.195090 0.350890 0.915869
vn -0.194433 0.426295 0.883441
vn 0.000000 0.357765 0.933812
vn 0.000000 0.433146 0.901324
vn 0.195091 0.350891 0.915869
vn 0.194434 0.426295 0.883441
vn 0.382682 0.330532 0.862730
vn 0.381393 0.406005 0.830481
vn 0.555570 0.297471 0.776436
vn 0.553698 0.373056 0.744478
vn 0.707107 0.252978 0.660304
vn 0.704725 0.328712 0.628738
vn 0.831469 0.198764 0.518798
vn 0.828668 0.274681 0.487709
vn 0.923879 0.136911 0.357355
vn 0.920767 0.213037 0.326809
vn 0.980785 0.069797 0.182178
vn 0.977481 0.146149 0.152222
vn 1.000000 -0.000001 -0.000003
vn 0.996631 0.076585 -0.029345
vn 0.033021 0.930933 -0.363696
vn 0.031106 0.928673 -0.369593
vn 0.027994 0.926590 -0.375029
vn 0.023807 0.924765 -0.379793
vn 0.018705 0.923267 -0.383703
vn 0.012884 0.922154 -0.386609
vn 0.006568 0.921468 -0.388398
vn -0.000000 0.921237 -0.389002
vn -0.006569 0.921469 -0.388398
vn -0.012885 0.922154 -0.386609
vn -0.018705 0.923267 -0.383703
vn -0.023808 0.924765 -0.379793
vn -0.027995 0.926590 -0.375029
vn -0.031106 0.928673 -0.369593
vn -0.033022 0.930933 -0.363695
vn -0.033669 0.933283 -0.357562
vn -0.033022 0.935632 -0.351428
vn -0.031106 0.937892 -0.345530
vn -0.027995 0.939975 -0.340095
vn -0.023808 0.941800 -0.335330
vn -0.018706 0.943298 -0.331420
vn -0.012885 0.944411 -0.328515
vn -0.006569 0.945096 -0.326726
vn -0.000000 0.945328 -0.326121
vn 0.006568 0.945096 -0.326726
vn 0.012884 0.944411 -0.328515
vn 0.018705 0.943298 -0.331420
vn 0.023807 0.941800 -0.335330
vn 0.027994 0.939975 -0.340094
vn 0.031106 0.937892 -0.345530
vn 0.033022 0.935633 -0.351428
vn 0.033669 0.933282 -0.357562
vn -0.044429 0.936015 -0.349145
vn -0.041851 0.939055 -0.341209
vn -0.000000 0.933812 -0.357765
vn -0.037665 0.941857 -0.333896
vn -0.032032 0.944313 -0.327486
vn -0.025167 0.946328 -0.322225
vn -0.017336 0.947826 -0.318316
vn -0.008838 0.948749 -0.315909
vn -0.000000 0.949060 -0.315096
vn 0.008837 0.948748 -0.315909
vn 0.017335 0.947826 -0.318316
vn 0.025167 0.946328 -0.322225
vn 0.032031 0.944313 -0.327486
vn 0.037665 0.941857 -0.333896
vn 0.041851 0.939055 -0.341209
vn 0.044429 0.936015 -0.349145
vn 0.045299 0.932853 -0.357397
vn 0.044429 0.929692 -0.365650
vn 0.041851 0.926651 -0.373585
vn 0.037665 0.923849 -0.380899
vn 0.032031 0.921394 -0.387309
vn 0.025167 0.919378 -0.392569
vn 0.017335 0.917880 -0.396479
vn 0.008837 0.916958 -0.398886
vn -0.000000 0.916647 -0.399698
vn -0.008838 0.916958 -0.398886
vn -0.017335 0.917880 -0.396479
vn -0.025167 0.919378 -0.392569
vn -0.032032 0.921394 -0.387309
vn -0.037665 0.923849 -0.380899
vn -0.041851 0.926651 -0.373585
vn -0.044429 0.929692 -0.365650
vn -0.045300 0.932853 -0.357397
vt 0.971638 0.208578
vt 0.967297 0.222889
vt 0.959689 0.206201
vt 0.956041 0.218227
vt 0.960247 0.236079
vt 0.950117 0.229310
vt 0.950759 0.247640
vt 0.942144 0.239025
vt 0.939199 0.257127
vt 0.932430 0.246997
vt 0.926009 0.264177
vt 0.921347 0.252921
vt 0.911698 0.268519
vt 0.909321 0.256569
vt 0.896814 0.269985
vt 0.896814 0.257801
vt 0.881931 0.268519
vt 0.884308 0.256569
vt 0.867619 0.264177
vt 0.872282 0.252921
vt 0.854430 0.257127
vt 0.861199 0.246997
vt 0.851484 0.239025
vt 0.842869 0.247640
vt 0.833381 0.236079
vt 0.843512 0.229310
vt 0.826331 0.222890
vt 0.837588 0.218227
vt 0.821990 0.208578
vt 0.833940 0.206201
vt 0.820524 0.193695
vt 0.832708 0.193695
vt 0.821990 0.178811
vt 0.833940 0.181188
vt 0.826331 0.164500
vt 0.837588 0.169162
vt 0.833381 0.151310
vt 0.843512 0.158079
vt 0.842869 0.139750
vt 0.851484 0.148365
vt 0.854430 0.130262
vt 0.861199 0.140392
vt 0.867619 0.123212
vt 0.872282 0.134468
vt 0.881931 0.118870
vt 0.884308 0.130820
vt 0.896814 0.117405
vt 0.896814 0.129588
vt 0.911698 0.118870
vt 0.909321 0.130820
vt 0.926009 0.123212
vt 0.921347 0.134468
vt 0.939199 0.130262
vt 0.932430 0.140392
vt 0.950759 0.139749
vt 0.942144 0.148365
vt 0.960247 0.151310
vt 0.950117 0.158079
vt 0.967297 0.164500
vt 0.956041 0.169162
vt 0.971638 0.178811
vt 0.959689 0.181188
vt 0.973104 0.193695
vt 0.960921 0.193695
vt 0.957724 0.205810
vt 0.954190 0.217461
vt 0.948451 0.228197
vt 0.940728 0.237608
vt 0.931317 0.245332
vt 0.920580 0.251071
vt 0.908930 0.254605
vt 0.896814 0.255798
vt 0.884699 0.254605
vt 0.873048 0.251071
vt 0.862312 0.245332
vt 0.852901 0.237608
vt 0.845177 0.228197
vt 0.839438 0.217461
vt 0.835904 0.205810
vt 0.834711 0.193695
vt 0.835904 0.181579
vt 0.839438 0.169929
vt 0.845177 0.159192
vt 0.852901 0.149781
vt 0.862311 0.142058
vt 0.873048 0.136319
vt 0.884698 0.132785
vt 0.896814 0.131591
vt 0.908930 0.132785
vt 0.920580 0.136319
vt 0.931317 0.142058
vt 0.940728 0.149781
vt 0.948451 0.159192
vt 0.954190 0.169929
vt 0.957724 0.181579
vt 0.958918 0.193695
vt 0.927133 0.199725
vt 0.925374 0.205525
vt 0.896814 0.193695
vt 0.922517 0.210869
vt 0.918673 0.215553
vt 0.913989 0.219398
vt 0.908644 0.222254
vt 0.902845 0.224014
vt 0.896814 0.224608
vt 0.890783 0.224014
vt 0.884984 0.222254
vt 0.879640 0.219398
vt 0.874956 0.215553
vt 0.871111 0.210869
vt 0.868254 0.205525
vt 0.866495 0.199725
vt 0.865901 0.193695
vt 0.866495 0.187664
vt 0.868254 0.181865
vt 0.871111 0.176520
vt 0.874956 0.171836
vt 0.879640 0.167992
vt 0.884984 0.165135
vt 0.890783 0.163376
vt 0.896814 0.162782
vt 0.902845 0.163376
vt 0.908644 0.165135
vt 0.913989 0.167992
vt 0.918673 0.171836
vt 0.922517 0.176520
vt 0.925374 0.181865
vt 0.927133 0.187664
vt 0.927727 0.193695
usemtl material_0
s 1
f 1/1/1 2/2/2 3/3/3
f 3/3/3 2/2/2 4/4/4
f 2/2/2 5/5/5 4/4/4
f 4/4/4 5/5/5 6/6/6
f 5/5/5 7/7/7 6/6/6
f 6/6/6 7/7/7 8/8/8
f 7/7/7 9/9/9 8/8/8
f 8/8/8 9/9/9 10/10/10
f 9/9/9 11/11/11 10/10/10
f 10/10/10 11/11/11 12/12/12
f 11/11/11 13/13/13 12/12/12
f 12/12/12 13/13/13 14/14/14
f 13/13/13 15/15/15 14/14/14
f 14/14/14 15/15/15 16/16/16
f 15/15/15 17/17/17 16/16/16
f 16/16/16 17/17/17 18/18/18
f 17/17/17 19/19/19 18/18/18
f 18/18/18 19/19/19 20/20/20
f 19/19/19 21/21/21 20/20/20
f 20/20/20 21/21/21 22/22/22
f 22/22/22 21/21/21 23/23/23
f 23/23/23 21/21/21 24/24/24
f 24/24/24 25/25/25 23/23/23
f 23/23/23 25/25/25 26/26/26
f 25/25/25 27/27/27 26/26/26
f 26/26/26 27/27/27 28/28/28
f 27/27/27 29/29/29 28/28/28
f 28/28/28 29/29/29 30/30/30
f 29/29/29 31/31/31 30/30/30
f 30/30/30 31/31/31 32/32/32
f 31/31/31 33/33/33 32/32/32
f 32/32/32 33/33/33 34/34/34
f 33/33/33 35/35/35 34/34/34
f 34/34/34 35/35/35 36/36/36
f 35/35/35 37/37/37 36/36/36
f 36/36/36 37/37/37 38/38/38
f 37/37/37 39/39/39 38/38/38
f 38/38/38 39/39/39 40/40/40
f 39/39/39 41/41/41 40/40/40
f 40/40/40 41/41/41 42/42/42
f 41/41/41 43/43/43 42/42/42
f 42/42/42 43/43/43 44/44/44
f 43/43/43 45/45/45 44/44/44
f 44/44/44 45/45/45 46/46/46
f 45/45/45 47/47/47 46/46/46
f 46/46/46 47/47/47 48/48/48
f 47/47/47 49/49/49 48/48/48
f 48/48/48 49/49/49 50/50/50
f 49/49/49 51/51/51 50/50/50
f 50/50/50 51/51/51 52/52/52
f 51/51/51 53/53/53 52/52/52
f 52/52/52 53/53/53 54/54/54
f 53/53/53 55/55/55 54/54/54
f 54/54/54 55/55/55 56/56/56
f 55/55/55 57/57/57 56/56/56
f 56/56/56 57/57/57 58/58/58
f 57/57/57 59/59/59 58/58/58
f 58/58/58 59/59/59 60/60/60
f 59/59/59 61/61/61 60/60/60
f 60/60/60 61/61/61 62/62/62
f 61/61/61 63/63/63 62/62/62
f 62/62/62 63/63/63 64/64/64
f 63/63/63 1/1/1 64/64/64
f 64/64/64 1/1/1 3/3/3
f 3/3/3 4/4/4 65/65/65
f 65/65/65 4/4/4 66/66/66
f 4/4/4 6/6/6 66/66/66
f 66/66/66 6/6/6 67/67/67
f 6/6/6 8/8/8 67/67/67
f 67/67/67 8/8/8 68/68/68
f 8/8/8 10/10/10 68/68/68
f 68/68/68 10/10/10 69/69/69
f 10/10/10 12/12/12 69/69/69
f 69/69/69 12/12/12 70/70/70
f 12/12/12 14/14/14 70/70/70
f 70/70/70 14/14/14 71/71/71
f 14/14/14 16/16/16 71/71/71
f 71/71/71 16/16/16 72/72/72
f 16/16/16 18/18/18 72/72/72
f 72/72/72 18/18/18 73/73/73
f 18/18/18 20/20/20 73/73/73
f 73/73/73 20/20/20 74/74/74
f 20/20/20 22/22/22 74/74/74
f 74/74/74 22/22/22 75/75/75
f 22/22/22 23/23/23 75/75/75
f 75/75/75 23/23/23 76/76/76
f 23/23/23 26/26/26 76/76/76
f 76/76/76 26/26/26 77/77/77
f 26/26/26 28/28/28 77/77/77
f 77/77/77 28/28/28 78/78/78
f 28/28/28 30/30/30 78/78/78
f 78/78/78 30/30/30 79/79/79
f 30/30/30 32/32/32 79/79/79
f 79/79/79 32/32/32 80/80/80
f 32/32/32 34/34/34 80/80/80
f 80/80/80 34/34/34 81/81/81
f 34/34/34 36/36/36 81/81/81
f 81/81/81 36/36/36 82/82/82
f 36/36/36 38/38/38 82/82/82
f 82/82/82 38/38/38 83/83/83
f 38/38/38 40/40/40 83/83/83
f 83/83/83 40/40/40 84/84/84
f 40/40/40 42/42/42 84/84/84
f 84/84/84 42/42/42 85/85/85
f 42/42/42 44/44/44 85/85/85
f 85/85/85 44/44/44 86/86/86
f 44/44/44 46/46/46 86/86/86
f 86/86/86 46/46/46 87/87/87
f 46/46/46 48/48/48 87/87/87
f 87/87/87 48/48/48 88/88/88
f 48/48/48 50/50/50 88/88/88
f 88/88/88 50/50/50 89/89/89
f 50/50/50 52/52/52 89/89/89
f 89/89/89 52/52/52 90/90/90
f 52/52/52 54/54/54 90/90/90
f 90/90/90 54/54/54 91/91/91
f 54/54/54 56/56/56 91/91/91
f 91/91/91 56/56/56 92/92/92
f 56/56/56 58/58/58 92/92/92
f 92/92/92 58/58/58 93/93/93
f 58/58/58 60/60/60 93/93/93
f 93/93/93 60/60/60 94/94/94
f 60/60/60 62/62/62 94/94/94
f 94/94/94 62/62/62 95/95/95
f 62/62/62 64/64/64 95/95/95
f 95/95/95 64/64/64 96/96/96
f 64/64/64 3/3/3 96/96/96
f 96/96/96 3/3/3 65/65/65
f 97/97/97 98/98/98 99/99/99
f 98/98/98 100/100/100 99/99/99
f 100/100/100 101/101/101 99/99/99
f 101/101/101 102/102/102 99/99/99
f 102/102/102 103/103/103 99/99/99
f 103/103/103 104/104/104 99/99/99
f 104/104/104 105/105/105 99/99/99
f 105/105/105 106/106/106 99/99/99
f 106/106/106 107/107/107 99/99/99
f 107/107/107 108/108/108 99/99/99
f 108/108/108 109/109/109 99/99/99
f 109/109/109 110/110/110 99/99/99
f 110/110/110 111/111/111 99/99/99
f 111/111/111 112/112/112 99/99/99
f 112/112/112 113/113/113 99/99/99
f 113/113/113 114/114/114 99/99/99
f 114/114/114 115/115/115 99/99/99
f 115/115/115 116/116/116 99/99/99
f 116/116/116 117/117/117 99/99/99
f 117/117/117 118/118/118 99/99/99
f 118/118/118 119/119/119 99/99/99
f 119/119/119 120/120/120 99/99/99
f 120/120/120 121/121/121 99/99/99
f 121/121/121 122/122/122 99/99/99
f 122/122/122 123/123/123 99/99/99
f 123/123/123 124/124/124 99/99/99
f 124/124/124 125/125/125 99/99/99
f 125/125/125 126/126/126 99/99/99
f 126/126/126 127/127/127 99/99/99
f 127/127/127 128/128/128 99/99/99
f 128/128/128 129/129/129 99/99/99
f 129/129/129 97/97/97 99/99/99
f 75/75/75 76/76/76 108/108/108
f 108/108/108 76/76/76 109/109/109
f 74/74/74 75/75/75 107/107/107
f 107/107/107 75/75/75 108/108/108
f 73/73/73 74/74/74 106/106/106
f 106/106/106 74/74/74 107/107/107
f 72/72/72 73/73/73 105/105/105
f 105/105/105 73/73/73 106/106/106
f 71/71/71 72/72/72 104/104/104
f 104/104/104 72/72/72 105/105/105
f 70/70/70 71/71/71 103/103/103
f 103/103/103 71/71/71 104/104/104
f 69/69/69 70/70/70 102/102/102
f 102/102/102 70/70/70 103/103/103
f 68/68/68 69/69/69 101/101/101
f 101/101/101 69/69/69 102/102/102
f 67/67/67 68/68/68 100/100/100
f 100/100/100 68/68/68 101/101/101
f 66/66/66 67/67/67 98/98/98
f 98/98/98 67/67/67 100/100/100
f 65/65/65 66/66/66 97/97/97
f 97/97/97 66/66/66 98/98/98
f 96/96/96 65/65/65 129/129/129
f 129/129/129 65/65/65 97/97/97
f 95/95/95 96/96/96 128/128/128
f 128/128/128 96/96/96 129/129/129
f 94/94/94 95/95/95 127/127/127
f 127/127/127 95/95/95 128/128/128
f 93/93/93 94/94/94 126/126/126
f 126/126/126 94/94/94 127/127/127
f 92/92/92 93/93/93 125/125/125
f 125/125/125 93/93/93 126/126/126
f 91/91/91 92/92/92 124/124/124
f 124/124/124 92/92/92 125/125/125
f 90/90/90 91/91/91 123/123/123
f 123/123/123 91/91/91 124/124/124
f 89/89/89 90/90/90 122/122/122
f 122/122/122 90/90/90 123/123/123
f 88/88/88 89/89/89 121/121/121
f 121/121/121 89/89/89 122/122/122
f 87/87/87 88/88/88 120/120/120
f 120/120/120 88/88/88 121/121/121
f 86/86/86 87/87/87 119/119/119
f 119/119/119 87/87/87 120/120/120
f 85/85/85 86/86/86 118/118/118
f 118/118/118 86/86/86 119/119/119
f 84/84/84 85/85/85 117/117/117
f 117/117/117 85/85/85 118/118/118
f 83/83/83 84/84/84 116/116/116
f 116/116/116 84/84/84 117/117/117
f 82/82/82 83/83/83 115/115/115
f 115/115/115 83/83/83 116/116/116
f 81/81/81 82/82/82 114/114/114
f 114/114/114 82/82/82 115/115/115
f 80/80/80 81/81/81 113/113/113
f 113/113/113 81/81/81 114/114/114
f 79/79/79 80/80/80 112/112/112
f 112/112/112 80/80/80 113/113/113
f 78/78/78 79/79/79 111/111/111
f 111/111/111 79/79/79 112/112/112
f 77/77/77 78/78/78 110/110/110
f 110/110/110 78/78/78 111/111/111
f 76/76/76 77/77/77 109/109/109
f 109/109/109 77/77/77 110/110/110
